<svg xmlns="http://www.w3.org/2000/svg" xmlns:xlink="http://www.w3.org/1999/xlink" width="1080" zoomAndPan="magnify" viewBox="0 0 810 809.999993" height="1080" preserveAspectRatio="xMidYMid meet" version="1.0"><defs><g/><clipPath id="1373f722de"><path d="M 487 240 L 783 240 L 783 436 L 487 436 Z M 487 240 " clip-rule="nonzero"/></clipPath><clipPath id="7a129b9543"><path d="M 504.59375 203.535156 L 800.289062 335.976562 L 748.480469 451.652344 L 452.785156 319.214844 Z M 504.59375 203.535156 " clip-rule="nonzero"/></clipPath><clipPath id="c2940a1d75"><path d="M 504.59375 203.535156 L 800.289062 335.976562 L 748.480469 451.652344 L 452.785156 319.214844 Z M 504.59375 203.535156 " clip-rule="nonzero"/></clipPath></defs><g fill="#00ff88" fill-opacity="1"><g transform="translate(169.566997, 461.78692)"><g><path d="M 122.96875 -48.796875 L 120.71875 -48.796875 C 118.3125 -48.796875 116.457031 -48.21875 115.15625 -47.0625 C 113.851562 -45.914062 113.203125 -44.242188 113.203125 -42.046875 L 113.203125 -17.265625 C 109.296875 -12.160156 102.835938 -7.65625 93.828125 -3.75 C 84.828125 0.15625 74.722656 2.109375 63.515625 2.109375 C 46.390625 2.109375 32.644531 -2.816406 22.28125 -12.671875 C 11.925781 -22.535156 6.75 -35.847656 6.75 -52.609375 C 6.75 -69.378906 11.925781 -82.671875 22.28125 -92.484375 C 32.644531 -102.296875 46.6875 -107.203125 64.40625 -107.203125 C 72.414062 -107.203125 80.171875 -106.425781 87.671875 -104.875 C 95.179688 -103.320312 101.238281 -101.394531 105.84375 -99.09375 L 106.15625 -73.265625 L 104.796875 -73.265625 C 102.191406 -82.972656 97.738281 -90.003906 91.4375 -94.359375 C 85.132812 -98.710938 77.628906 -100.890625 68.921875 -100.890625 C 56.804688 -100.890625 47.492188 -96.5625 40.984375 -87.90625 C 34.484375 -79.25 31.234375 -67.390625 31.234375 -52.328125 C 31.234375 -37.265625 34.207031 -25.476562 40.15625 -16.96875 C 46.113281 -8.457031 54.550781 -4.203125 65.46875 -4.203125 C 73.375 -4.203125 79.976562 -6.453125 85.28125 -10.953125 C 87.882812 -13.253906 89.785156 -15.957031 90.984375 -19.0625 L 90.984375 -42.046875 C 90.984375 -44.242188 90.304688 -45.914062 88.953125 -47.0625 C 87.609375 -48.21875 85.679688 -48.796875 83.171875 -48.796875 L 80.78125 -48.796875 L 80.78125 -50.296875 L 122.96875 -50.296875 Z M 122.96875 -48.796875 "/></g></g></g><g fill="#00ff88" fill-opacity="1"><g transform="translate(295.084519, 461.78692)"><g><path d="M 110.8125 -1.5 L 112.15625 -1.5 L 112.15625 0 L 64.265625 0 L 64.265625 -1.5 L 65.625 -1.5 C 67.820312 -1.5 69.445312 -2.175781 70.5 -3.53125 C 71.550781 -4.882812 72.078125 -6.160156 72.078125 -7.359375 C 72.078125 -8.554688 71.828125 -9.753906 71.328125 -10.953125 L 63.96875 -29.421875 L 28.828125 -29.421875 L 21.03125 -10.953125 C 20.53125 -9.660156 20.28125 -8.4375 20.28125 -7.28125 C 20.28125 -6.132812 20.800781 -4.882812 21.84375 -3.53125 C 22.894531 -2.175781 24.570312 -1.5 26.875 -1.5 L 28.078125 -1.5 L 28.078125 0 L -4.046875 0 L -4.046875 -1.5 L -2.703125 -1.5 C -0.398438 -1.5 1.898438 -2.195312 4.203125 -3.59375 C 6.503906 -5 8.410156 -7.101562 9.921875 -9.90625 L 44.59375 -88.4375 C 49.300781 -98.34375 51.804688 -104.894531 52.109375 -108.09375 L 53.453125 -108.09375 L 98.046875 -10.203125 C 99.546875 -7.304688 101.445312 -5.128906 103.75 -3.671875 C 106.050781 -2.222656 108.40625 -1.5 110.8125 -1.5 Z M 31.390625 -35.734375 L 61.40625 -35.734375 L 46.84375 -72.671875 Z M 31.390625 -35.734375 "/></g></g></g><g fill="#00ff88" fill-opacity="1"><g transform="translate(402.585174, 461.78692)"><g><path d="M 142.1875 -1.5 L 144.578125 -1.5 L 144.578125 0 L 99.546875 0 L 99.546875 -1.34375 L 101.796875 -1.34375 C 103.492188 -1.34375 104.941406 -2.019531 106.140625 -3.375 C 107.347656 -4.726562 107.851562 -6.207031 107.65625 -7.8125 L 101.796875 -62.3125 L 73.5625 -13.65625 C 69.863281 -7.457031 67.960938 -1.90625 67.859375 3 L 66.359375 3 L 27.78125 -61.859375 L 21.921875 -7.8125 C 21.722656 -6.207031 22.222656 -4.726562 23.421875 -3.375 C 24.617188 -2.019531 26.070312 -1.34375 27.78125 -1.34375 L 30.03125 -1.34375 L 30.03125 0 L -1.34375 0 L -1.34375 -1.5 L 1.046875 -1.5 C 3.847656 -1.5 6.273438 -2.347656 8.328125 -4.046875 C 10.378906 -5.753906 11.609375 -8.054688 12.015625 -10.953125 L 24.46875 -107.203125 L 25.828125 -107.203125 L 72.375 -30.625 L 117.109375 -107.203125 L 118.453125 -107.203125 L 131.21875 -10.953125 C 131.71875 -8.054688 132.992188 -5.753906 135.046875 -4.046875 C 137.097656 -2.347656 139.476562 -1.5 142.1875 -1.5 Z M 142.1875 -1.5 "/></g></g></g><g fill="#00ff88" fill-opacity="1"><g transform="translate(545.669139, 461.78692)"><g><path d="M 8.25 -1.5 C 10.851562 -1.5 13.082031 -2.425781 14.9375 -4.28125 C 16.789062 -6.132812 17.765625 -8.359375 17.859375 -10.953125 L 17.859375 -94.59375 C 17.566406 -98.09375 15.914062 -100.691406 12.90625 -102.390625 C 11.40625 -103.191406 9.851562 -103.59375 8.25 -103.59375 L 6.3125 -103.59375 L 6.3125 -105.09375 L 63.8125 -105.09375 C 66.914062 -105.09375 70.316406 -105.394531 74.015625 -106 C 77.722656 -106.601562 80.328125 -107.203125 81.828125 -107.796875 L 81.828125 -81.53125 L 80.328125 -81.53125 L 80.328125 -83.328125 C 80.328125 -87.828125 79 -91.453125 76.34375 -94.203125 C 73.695312 -96.960938 70.117188 -98.441406 65.609375 -98.640625 L 40.390625 -98.640625 L 40.390625 -54.953125 L 60.203125 -54.953125 C 63.910156 -55.054688 66.960938 -56.332031 69.359375 -58.78125 C 71.765625 -61.226562 72.96875 -64.253906 72.96875 -67.859375 L 72.96875 -69.21875 L 74.46875 -69.21875 L 74.46875 -34.53125 L 72.96875 -34.53125 L 72.96875 -35.734375 C 72.96875 -40.734375 70.96875 -44.4375 66.96875 -46.84375 C 64.957031 -47.945312 62.753906 -48.546875 60.359375 -48.640625 L 40.390625 -48.640625 L 40.390625 -6.453125 L 60.0625 -6.453125 C 67.363281 -6.453125 73.488281 -8.550781 78.4375 -12.75 C 83.394531 -16.957031 87.078125 -22.914062 89.484375 -30.625 L 90.984375 -30.625 L 84.078125 0 L 6.3125 0 L 6.3125 -1.5 Z M 8.25 -1.5 "/></g></g></g><g clip-path="url(#1373f722de)"><g clip-path="url(#7a129b9543)"><g clip-path="url(#c2940a1d75)"><path fill="#ffffff" d="M 781.691406 370.667969 L 658.890625 274.09375 C 654.765625 270.851562 649.929688 268.6875 644.863281 267.8125 L 490.949219 240.445312 C 488.269531 239.945312 486.710938 243.425781 488.867188 245.089844 L 549.238281 292.566406 C 592.847656 298.394531 634.503906 316.355469 670.75 340.949219 C 632.890625 318.652344 589.355469 303.335938 545.46875 300.980469 L 536.761719 320.421875 C 536.027344 322.066406 537.097656 323.824219 538.859375 324.035156 C 563.945312 327.140625 591.0625 334.523438 617.953125 346.566406 C 644.839844 358.609375 668.40625 373.925781 687.523438 390.617188 C 688.851562 391.792969 690.78125 391.378906 691.515625 389.734375 L 703.992188 361.878906 L 737.023438 367.730469 L 713.714844 419.765625 L 713.230469 419.550781 C 712.167969 419.074219 710.90625 419.554688 710.429688 420.617188 L 706.144531 430.195312 C 705.667969 431.257812 706.148438 432.519531 707.210938 432.996094 L 713.015625 435.59375 C 714.078125 436.070312 715.339844 435.589844 715.8125 434.527344 L 720.101562 424.949219 C 720.578125 423.886719 720.097656 422.625 719.035156 422.148438 L 718.550781 421.933594 L 742.378906 368.734375 L 779.613281 375.3125 C 782.386719 375.855469 783.945312 372.375 781.691406 370.667969 Z M 781.691406 370.667969 " fill-opacity="1" fill-rule="nonzero"/></g></g></g><g fill="#ffffff" fill-opacity="1"><g transform="translate(318.744071, 555.492184)"><g><path d="M 12.0625 -3.328125 L 4.859375 -3.328125 L 3.484375 0 L -0.203125 0 L 6.71875 -15.53125 L 10.265625 -15.53125 L 17.21875 0 L 13.453125 0 Z M 10.9375 -6.0625 L 8.46875 -12 L 6.015625 -6.0625 Z M 10.9375 -6.0625 "/></g></g></g><g fill="#ffffff" fill-opacity="1"><g transform="translate(344.549166, 555.492184)"><g><path d="M 9.28125 0.265625 C 7.695312 0.265625 6.265625 -0.078125 4.984375 -0.765625 C 3.703125 -1.453125 2.691406 -2.40625 1.953125 -3.625 C 1.222656 -4.84375 0.859375 -6.222656 0.859375 -7.765625 C 0.859375 -9.304688 1.222656 -10.6875 1.953125 -11.90625 C 2.691406 -13.125 3.703125 -14.078125 4.984375 -14.765625 C 6.265625 -15.453125 7.703125 -15.796875 9.296875 -15.796875 C 10.640625 -15.796875 11.851562 -15.554688 12.9375 -15.078125 C 14.03125 -14.609375 14.945312 -13.929688 15.6875 -13.046875 L 13.375 -10.921875 C 12.320312 -12.128906 11.019531 -12.734375 9.46875 -12.734375 C 8.507812 -12.734375 7.648438 -12.519531 6.890625 -12.09375 C 6.140625 -11.675781 5.550781 -11.085938 5.125 -10.328125 C 4.707031 -9.578125 4.5 -8.722656 4.5 -7.765625 C 4.5 -6.804688 4.707031 -5.945312 5.125 -5.1875 C 5.550781 -4.4375 6.140625 -3.847656 6.890625 -3.421875 C 7.648438 -3.003906 8.507812 -2.796875 9.46875 -2.796875 C 11.019531 -2.796875 12.320312 -3.410156 13.375 -4.640625 L 15.6875 -2.5 C 14.945312 -1.601562 14.03125 -0.914062 12.9375 -0.4375 C 11.84375 0.03125 10.625 0.265625 9.28125 0.265625 Z M 9.28125 0.265625 "/></g></g></g><g fill="#ffffff" fill-opacity="1"><g transform="translate(369.622206, 555.492184)"><g><path d="M 12.0625 -3.328125 L 4.859375 -3.328125 L 3.484375 0 L -0.203125 0 L 6.71875 -15.53125 L 10.265625 -15.53125 L 17.21875 0 L 13.453125 0 Z M 10.9375 -6.0625 L 8.46875 -12 L 6.015625 -6.0625 Z M 10.9375 -6.0625 "/></g></g></g><g fill="#ffffff" fill-opacity="1"><g transform="translate(395.427298, 555.492184)"><g><path d="M 1.84375 -15.53125 L 8.890625 -15.53125 C 10.578125 -15.53125 12.066406 -15.207031 13.359375 -14.5625 C 14.660156 -13.914062 15.671875 -13.007812 16.390625 -11.84375 C 17.109375 -10.675781 17.46875 -9.316406 17.46875 -7.765625 C 17.46875 -6.210938 17.109375 -4.851562 16.390625 -3.6875 C 15.671875 -2.519531 14.660156 -1.613281 13.359375 -0.96875 C 12.066406 -0.320312 10.578125 0 8.890625 0 L 1.84375 0 Z M 8.71875 -2.953125 C 10.269531 -2.953125 11.507812 -3.382812 12.4375 -4.25 C 13.363281 -5.113281 13.828125 -6.285156 13.828125 -7.765625 C 13.828125 -9.242188 13.363281 -10.414062 12.4375 -11.28125 C 11.507812 -12.144531 10.269531 -12.578125 8.71875 -12.578125 L 5.4375 -12.578125 L 5.4375 -2.953125 Z M 8.71875 -2.953125 "/></g></g></g><g fill="#ffffff" fill-opacity="1"><g transform="translate(422.563413, 555.492184)"><g><path d="M 13.859375 -2.890625 L 13.859375 0 L 1.84375 0 L 1.84375 -15.53125 L 13.578125 -15.53125 L 13.578125 -12.640625 L 5.40625 -12.640625 L 5.40625 -9.28125 L 12.625 -9.28125 L 12.625 -6.484375 L 5.40625 -6.484375 L 5.40625 -2.890625 Z M 13.859375 -2.890625 "/></g></g></g><g fill="#ffffff" fill-opacity="1"><g transform="translate(446.26107, 555.492184)"><g><path d="M 15.96875 0 L 15.953125 -9.3125 L 11.375 -1.640625 L 9.765625 -1.640625 L 5.21875 -9.125 L 5.21875 0 L 1.84375 0 L 1.84375 -15.53125 L 4.8125 -15.53125 L 10.625 -5.875 L 16.359375 -15.53125 L 19.296875 -15.53125 L 19.34375 0 Z M 15.96875 0 "/></g></g></g><g fill="#ffffff" fill-opacity="1"><g transform="translate(476.258883, 555.492184)"><g><path d="M 9.296875 -5.5 L 9.296875 0 L 5.703125 0 L 5.703125 -5.546875 L -0.3125 -15.53125 L 3.5 -15.53125 L 7.65625 -8.625 L 11.796875 -15.53125 L 15.328125 -15.53125 Z M 9.296875 -5.5 "/></g></g></g><g fill="#ffffff" fill-opacity="1"><g transform="translate(211.942243, 534.522449)"><g><path d="M 85.234375 -0.90625 L 86.671875 -0.90625 L 86.671875 0 L 59.671875 0 L 59.671875 -0.8125 L 61.015625 -0.8125 C 62.035156 -0.8125 62.90625 -1.210938 63.625 -2.015625 C 64.34375 -2.828125 64.644531 -3.71875 64.53125 -4.6875 L 61.015625 -37.34375 L 44.09375 -8.1875 C 41.875 -4.46875 40.738281 -1.140625 40.6875 1.796875 L 39.78125 1.796875 L 16.65625 -37.078125 L 13.140625 -4.6875 C 13.015625 -3.71875 13.3125 -2.828125 14.03125 -2.015625 C 14.757812 -1.210938 15.632812 -0.8125 16.65625 -0.8125 L 18 -0.8125 L 18 0 L -0.8125 0 L -0.8125 -0.90625 L 0.625 -0.90625 C 2.3125 -0.90625 3.769531 -1.410156 5 -2.421875 C 6.226562 -3.441406 6.960938 -4.820312 7.203125 -6.5625 L 14.671875 -64.265625 L 15.484375 -64.265625 L 43.375 -18.359375 L 70.203125 -64.265625 L 71.015625 -64.265625 L 78.65625 -6.5625 C 78.957031 -4.820312 79.722656 -3.441406 80.953125 -2.421875 C 82.179688 -1.410156 83.609375 -0.90625 85.234375 -0.90625 Z M 85.234375 -0.90625 "/></g></g></g><g fill="#ffffff" fill-opacity="1"><g transform="translate(297.712159, 534.522449)"><g><path d="M 66.421875 -0.90625 L 67.234375 -0.90625 L 67.234375 0 L 38.53125 0 L 38.53125 -0.90625 L 39.328125 -0.90625 C 40.648438 -0.90625 41.625 -1.304688 42.25 -2.109375 C 42.882812 -2.921875 43.203125 -3.6875 43.203125 -4.40625 C 43.203125 -5.125 43.050781 -5.84375 42.75 -6.5625 L 38.34375 -17.640625 L 17.28125 -17.640625 L 12.609375 -6.5625 C 12.304688 -5.789062 12.15625 -5.054688 12.15625 -4.359375 C 12.15625 -3.671875 12.46875 -2.921875 13.09375 -2.109375 C 13.726562 -1.304688 14.734375 -0.90625 16.109375 -0.90625 L 16.828125 -0.90625 L 16.828125 0 L -2.421875 0 L -2.421875 -0.90625 L -1.609375 -0.90625 C -0.234375 -0.90625 1.140625 -1.320312 2.515625 -2.15625 C 3.898438 -3 5.039062 -4.257812 5.9375 -5.9375 L 26.734375 -53.015625 C 29.554688 -58.953125 31.054688 -62.878906 31.234375 -64.796875 L 32.046875 -64.796875 L 58.78125 -6.125 C 59.675781 -4.382812 60.8125 -3.078125 62.1875 -2.203125 C 63.570312 -1.335938 64.984375 -0.90625 66.421875 -0.90625 Z M 18.8125 -21.421875 L 36.8125 -21.421875 L 28.078125 -43.5625 Z M 18.8125 -21.421875 "/></g></g></g><g fill="#ffffff" fill-opacity="1"><g transform="translate(362.152098, 534.522449)"><g><path d="M 4.5 -8.375 C 4.5 -12.6875 5.429688 -16.375 7.296875 -19.4375 L 8.09375 -19.4375 C 8.039062 -18.957031 8.015625 -18.476562 8.015625 -18 C 8.015625 -13.863281 9.5 -10.25 12.46875 -7.15625 C 15.4375 -4.0625 19.5 -2.515625 24.65625 -2.515625 C 28.675781 -2.515625 31.8125 -3.472656 34.0625 -5.390625 C 36.3125 -7.316406 37.4375 -9.75 37.4375 -12.6875 C 37.4375 -16.226562 35.035156 -19.316406 30.234375 -21.953125 L 14.578125 -32.3125 C 11.460938 -34.113281 9.226562 -36.285156 7.875 -38.828125 C 6.519531 -41.378906 5.84375 -43.976562 5.84375 -46.625 C 5.84375 -52.257812 7.628906 -56.609375 11.203125 -59.671875 C 14.773438 -62.734375 19.351562 -64.265625 24.9375 -64.265625 C 28.226562 -64.265625 32.304688 -63.960938 37.171875 -63.359375 L 42.84375 -63.359375 L 41.671875 -50.125 L 40.765625 -50.125 C 40.765625 -53.25 39.609375 -55.753906 37.296875 -57.640625 C 34.992188 -59.535156 31.921875 -60.484375 28.078125 -60.484375 C 23.398438 -60.484375 20.007812 -59.039062 17.90625 -56.15625 C 16.832031 -54.78125 16.296875 -53.222656 16.296875 -51.484375 C 16.296875 -48.597656 18.394531 -45.925781 22.59375 -43.46875 L 39.78125 -32.3125 C 45.175781 -29.1875 47.875 -24.597656 47.875 -18.546875 C 47.875 -12.117188 45.695312 -7.207031 41.34375 -3.8125 C 37 -0.425781 31.226562 1.265625 24.03125 1.265625 C 19.945312 1.265625 16.179688 0.769531 12.734375 -0.21875 C 9.285156 -1.207031 6.75 -2.546875 5.125 -4.234375 C 4.707031 -5.367188 4.5 -6.75 4.5 -8.375 Z M 4.5 -8.375 "/></g></g></g><g fill="#ffffff" fill-opacity="1"><g transform="translate(414.172061, 534.522449)"><g><path d="M 36.8125 -59.3125 L 36.8125 -6.484375 C 36.875 -4.921875 37.457031 -3.597656 38.5625 -2.515625 C 39.675781 -1.441406 41.007812 -0.90625 42.5625 -0.90625 L 43.65625 -0.90625 L 43.734375 0 L 16.375 0 L 16.375 -0.90625 L 17.546875 -0.90625 C 19.046875 -0.90625 20.347656 -1.441406 21.453125 -2.515625 C 22.566406 -3.597656 23.1875 -4.890625 23.3125 -6.390625 L 23.3125 -59.3125 L 11.15625 -59.3125 C 8.394531 -59.25 6.203125 -58.378906 4.578125 -56.703125 C 2.960938 -55.023438 2.15625 -52.832031 2.15625 -50.125 L 2.15625 -49.046875 L 1.265625 -49.046875 L 1.265625 -64.703125 C 2.097656 -64.347656 3.609375 -63.988281 5.796875 -63.625 C 7.992188 -63.269531 10.019531 -63.09375 11.875 -63.09375 L 48.15625 -63.09375 C 51.09375 -63.15625 53.488281 -63.394531 55.34375 -63.8125 C 57.207031 -64.226562 58.347656 -64.523438 58.765625 -64.703125 L 58.765625 -49.046875 L 57.875 -49.046875 L 57.875 -50.125 C 57.875 -52.832031 57.0625 -55.023438 55.4375 -56.703125 C 53.820312 -58.378906 51.632812 -59.25 48.875 -59.3125 Z M 36.8125 -59.3125 "/></g></g></g><g fill="#ffffff" fill-opacity="1"><g transform="translate(474.112, 534.522449)"><g><path d="M 4.953125 -0.90625 C 6.515625 -0.90625 7.847656 -1.457031 8.953125 -2.5625 C 10.066406 -3.675781 10.648438 -5.007812 10.703125 -6.5625 L 10.703125 -56.703125 C 10.523438 -58.796875 9.535156 -60.351562 7.734375 -61.375 C 6.835938 -61.851562 5.910156 -62.09375 4.953125 -62.09375 L 3.78125 -62.09375 L 3.78125 -63 L 38.25 -63 C 40.113281 -63 42.15625 -63.175781 44.375 -63.53125 C 46.59375 -63.894531 48.148438 -64.257812 49.046875 -64.625 L 49.046875 -48.875 L 48.15625 -48.875 L 48.15625 -49.953125 C 48.15625 -52.648438 47.359375 -54.820312 45.765625 -56.46875 C 44.171875 -58.125 42.023438 -59.007812 39.328125 -59.125 L 24.203125 -59.125 L 24.203125 -32.9375 L 36.09375 -32.9375 C 38.3125 -33 40.140625 -33.765625 41.578125 -35.234375 C 43.015625 -36.703125 43.734375 -38.519531 43.734375 -40.6875 L 43.734375 -41.484375 L 44.640625 -41.484375 L 44.640625 -20.703125 L 43.734375 -20.703125 L 43.734375 -21.421875 C 43.734375 -24.421875 42.535156 -26.640625 40.140625 -28.078125 C 38.941406 -28.734375 37.625 -29.09375 36.1875 -29.15625 L 24.203125 -29.15625 L 24.203125 -3.875 L 36 -3.875 C 40.375 -3.875 44.046875 -5.132812 47.015625 -7.65625 C 49.992188 -10.175781 52.203125 -13.742188 53.640625 -18.359375 L 54.546875 -18.359375 L 50.40625 0 L 3.78125 0 L 3.78125 -0.90625 Z M 4.953125 -0.90625 "/></g></g></g><g fill="#ffffff" fill-opacity="1"><g transform="translate(530.901929, 534.522449)"><g><path d="M 28.625 -59.046875 L 24.75 -59.046875 C 24.625 -59.046875 24.535156 -59.046875 24.484375 -59.046875 L 24.484375 -6.5625 C 24.535156 -4.34375 25.492188 -2.695312 27.359375 -1.625 C 28.253906 -1.144531 29.210938 -0.90625 30.234375 -0.90625 L 31.40625 -0.90625 L 31.40625 0 L 4.046875 0 L 4.046875 -0.90625 L 5.21875 -0.90625 C 7.375 -0.90625 9.023438 -1.832031 10.171875 -3.6875 C 10.648438 -4.53125 10.921875 -5.460938 10.984375 -6.484375 L 10.984375 -56.4375 C 10.921875 -57.988281 10.332031 -59.316406 9.21875 -60.421875 C 8.113281 -61.535156 6.78125 -62.09375 5.21875 -62.09375 L 4.046875 -62.09375 L 4.046875 -63 L 34.921875 -63 C 40.742188 -63 45.664062 -61.738281 49.6875 -59.21875 C 51.71875 -57.957031 53.332031 -56.203125 54.53125 -53.953125 C 55.738281 -51.703125 56.34375 -49.148438 56.34375 -46.296875 C 56.34375 -43.453125 55.847656 -40.828125 54.859375 -38.421875 C 53.867188 -36.023438 52.21875 -33.925781 49.90625 -32.125 C 47.59375 -30.332031 44.816406 -29.253906 41.578125 -28.890625 C 45.054688 -27.753906 48.117188 -25.113281 50.765625 -20.96875 C 57.242188 -10.59375 62.039062 -4.414062 65.15625 -2.4375 C 66.71875 -1.46875 68.671875 -0.957031 71.015625 -0.90625 L 71.015625 0 L 62.1875 0 C 57.09375 0 52.832031 -0.703125 49.40625 -2.109375 C 45.988281 -3.523438 43.203125 -5.941406 41.046875 -9.359375 C 39.960938 -11.097656 38.578125 -13.722656 36.890625 -17.234375 C 35.210938 -20.742188 34.101562 -23.25 33.5625 -24.75 C 31.945312 -28.351562 29.910156 -30.363281 27.453125 -30.78125 L 27.453125 -31.6875 L 30.234375 -31.6875 C 32.941406 -31.6875 35.328125 -32.492188 37.390625 -34.109375 C 39.460938 -35.734375 40.859375 -38.375 41.578125 -42.03125 C 41.816406 -43.289062 41.9375 -44.28125 41.9375 -45 C 41.9375 -49.914062 40.945312 -53.46875 38.96875 -55.65625 C 36.988281 -57.851562 34.4375 -58.984375 31.3125 -59.046875 C 30.71875 -59.046875 29.820312 -59.046875 28.625 -59.046875 Z M 28.625 -59.046875 "/></g></g></g></svg>